<?xml version="1.0" encoding="UTF-8"?>
<svg id="Layer_2" data-name="Layer 2" xmlns="http://www.w3.org/2000/svg" xmlns:xlink="http://www.w3.org/1999/xlink" viewBox="0 0 40 40">
  <defs>
    <style>
      .cls-1 {
        fill: #004a2a;
      }

      .cls-2 {
        fill: #005a32;
      }

      .cls-3 {
        fill: #e6e6e6;
      }

      .cls-4 {
        fill: #cca1ce;
      }

      .cls-5 {
        fill: #c9caf9;
      }

      .cls-6 {
        fill: #422512;
      }

      .cls-7 {
        fill: #442712;
      }

      .cls-8 {
        fill: #0d8043;
      }

      .cls-9 {
        fill: #3f2411;
      }

      .cls-10 {
        fill: #18a758;
      }

      .cls-11, .cls-12 {
        fill: #a33131;
      }

      .cls-13 {
        fill: #472813;
      }

      .cls-14 {
        fill: #50ae58;
      }

      .cls-15 {
        filter: url(#drop-shadow-2);
      }

      .cls-16 {
        filter: url(#drop-shadow-3);
      }

      .cls-17 {
        filter: url(#drop-shadow-1);
      }

      .cls-12 {
        stroke: #a33131;
        stroke-linecap: round;
        stroke-linejoin: round;
        stroke-width: .42px;
      }
    </style>
    <filter id="drop-shadow-1" filterUnits="userSpaceOnUse">
      <feOffset dx=".59" dy=".59"/>
      <feGaussianBlur result="blur" stdDeviation=".42"/>
      <feFlood flood-color="#cacccb" flood-opacity=".66"/>
      <feComposite in2="blur" operator="in"/>
      <feComposite in="SourceGraphic"/>
    </filter>
    <filter id="drop-shadow-2" filterUnits="userSpaceOnUse">
      <feOffset dx=".59" dy=".59"/>
      <feGaussianBlur result="blur-2" stdDeviation=".42"/>
      <feFlood flood-color="#cacccb" flood-opacity=".66"/>
      <feComposite in2="blur-2" operator="in"/>
      <feComposite in="SourceGraphic"/>
    </filter>
    <filter id="drop-shadow-3" filterUnits="userSpaceOnUse">
      <feOffset dx=".59" dy=".59"/>
      <feGaussianBlur result="blur-3" stdDeviation=".42"/>
      <feFlood flood-color="#cacccb" flood-opacity=".66"/>
      <feComposite in2="blur-3" operator="in"/>
      <feComposite in="SourceGraphic"/>
    </filter>
  </defs>
  <g id="Layer_1-2" data-name="Layer 1">
    <g>
      <rect class="cls-3" width="40" height="40" rx="3.67" ry="3.67"/>
      <g>
        <g class="cls-17">
          <path class="cls-14" d="m15.86,28.73c1.51-.35,3.06.36,3.78,1.72-1.45-.18-2.94-.24-3.78-1.72Z"/>
          <path class="cls-8" d="m14.9,30.07c1.42,1.71,3.46,2.03,5.46,1.75.22.17.5.25.78.15l.14-.05c.46-.17.95.04,1.18.46-2.79,1.05-5.94.91-8.84.12l1.29-2.43Z"/>
          <path class="cls-2" d="m13.4,33.23c-.03-.07-.05-.14-.07-.22h0s.27-.5.27-.5c2.91.79,6.05.94,8.84-.12.02.04.06.08.08.12.19.51-.08,1.07-.59,1.25l-4.01,1.46c-1.15.03-2.33-.18-3.48-.54-.45-.38-.83-.86-1.04-1.46Z"/>
          <path class="cls-1" d="m17.93,35.23l-.13.05c-1.19.43-2.44.16-3.35-.59,1.15.37,2.33.57,3.48.54Z"/>
          <g>
            <g>
              <path class="cls-13" d="m3.25,25.01c.32-.63,1.05-.95,1.73-.74l4.33,1.31,4.33,1.31c.88.27,1.58.93,1.9,1.79l-2.23,4.19c-.83.17-1.7-.01-2.38-.53l-3.63-2.75-3.63-2.75c-.57-.43-.74-1.2-.42-1.84Z"/>
              <path class="cls-7" d="m3.39,25.06c.1-.19.25-.34.43-.43.05-.02.1-.04.15-.06.23-.14.85-.07,1.12,0l4.13,1.25,4.46,1.36c.75.23,1.35.77,1.66,1.48l-2.12,3.98c-.48.07-.98,0-1.42-.19-.21-.07-.62-.33-.8-.47l-3.5-2.65-.07-.05-3.42-2.58c-.23-.17-.65-.64-.67-.91-.08-.23-.07-.5.05-.74Z"/>
              <path class="cls-6" d="m3.53,25.12c.09-.18.25-.31.44-.35.05-.01.1-.02.15-.02.11-.07.93.12,1.06.16l3.92,1.19,4.6,1.4c.62.19,1.13.62,1.41,1.18l-2.01,3.78c-.47.03-.94-.08-1.34-.31-.1-.03-.64-.42-.73-.48l-3.36-2.54-.07-.06-3.26-2.47c-.11-.09-.75-.65-.77-.78-.14-.19-.16-.46-.05-.69Z"/>
              <path class="cls-9" d="m13,32.25c-.45,0-.89-.16-1.25-.43l-3.96-3-3.96-3c-.2-.15-.26-.42-.15-.64.09-.17.26-.28.45-.28.05,0,.1,0,.15.02l4.73,1.44,4.73,1.44c.48.15.9.46,1.17.88l-1.9,3.57Z"/>
            </g>
            <path class="cls-10" d="m14.9,30.07l.68-1.28c.09-.03.19-.04.28-.06.84,1.48,2.34,1.55,3.78,1.72.07.14.15.28.21.43.04.11.08.23.1.34.06.24.21.46.4.6-2,.28-4.04-.04-5.46-1.75Z"/>
            <path class="cls-10" d="m14.9,30.07l.68-1.28c.09-.03.19-.04.28-.06.84,1.48,2.34,1.55,3.78,1.72.07.14.15.28.21.43.04.11.08.23.1.34.06.24.21.46.4.6-2,.28-4.04-.04-5.46-1.75Z"/>
          </g>
        </g>
        <g>
          <g>
            <path class="cls-5" d="m34.47,29.35c-.03.11-.11.12-.22.15-.56.14-1.09.4-1.45.88-.16.23-.29.49-.33.78-.01.09-.03.23.02.33.18.38-.29.81-.56,1.04-.02.01-.04.03-.06.04-.03.01-.06.03-.09.05-.51.33-.95.74-1.37,1.15-.1.1-.2.19-.31.26-.13.09-.25.16-.38.14-.08-.03-.13-.15-.15-.23-.02-.46-.18-.91-.44-1.3.59-.06,1.17-.2,1.69-.48.19-.11.11-.41-.12-.4-.16,0-.45.02-.61.03-.51.02-1.04.02-1.55,0-.53,0-.9-.37-1.18-.8,1.32.12,2.65,0,3.83-.54.17-.09.34-.24.49-.36.41-.36.76-.69,1.06-1.2.04-.06.07-.15.11-.21.18-.31.6-.42.94-.48.09.06.17.13.24.21.23.25.49.61.44.95Z"/>
            <path class="cls-4" d="m34.7,25.33c0-.23-.02-.71-.02-.94,0-.31,0-.63-.04-.88-.04-.26-.12-.38-.31-.54-.42-.33-1-.63-1.51-.86-.61-.27-1.23-.47-1.8-.89-.77-.55-1.19-1.49-1.34-2.41-.04-.29-.17-.54-.44-.7-.4-.23-.95-.3-1.45-.33-.72-.05-1.6-.02-2.29.14-.33.15-.69.3-.91.53-.68.71-.39,1.84-.1,2.68.44.93,1.82,1.14,2.76,1.15.12,0,.35,0,.46-.01.83-.05,1.77.09,2.36.75.79.93.69,2.2.29,3.25-.32.85-.95,1.6-1.75,2.04-.41.22-.84.38-1.28.49-.02,0-.04,0-.05,0h-.06c-.76.04-1.53-.22-2.15-.65-.61-.42-1.09-1-1.44-1.63-.2-.3-.11-.72.21-.89.31-.17.7-.04.85.28.45,1,1.35,1.9,2.49,1.96.19-.01.76-.15,1.06-.29.88-.37,1.56-1.16,1.81-2.09.05-.18.09-.39.1-.58.09-.58-.19-1.07-.66-1.38-.48-.4-1.13-.45-1.74-.42-.13,0-.38,0-.51,0-1.4-.03-3.24-.49-3.59-2.08-.34-1.2-.34-2.65.84-3.4.21-.14.45-.25.67-.37.23-.11.48-.15.72-.21.23-.05.46-.1.7-.13-.61-.35-1.01-1.09-.87-1.78-.09,0-.18-.02-.26-.06-.12-.07-.25-.12-.38-.17-.67-.26-1.37-.29-2.02.07-.27.15-.7.4-.97.56-.25.15-.49.31-.74.46-.43.25-.88.48-1.36.63-.06.02-.13.04-.19.07-.33.25-.29.81-.24,1.2.1.68.37,1.36.75,1.94.1.15.23.37.31.54.59,1.25.49,2.82-.4,3.91-.26.34-.58.63-.94.86.02.03.04.05.06.07.04.04.1.12.15.15.72.7,1.73.73,2.58.22.01,0,.06-.07.07-.08.23-.36.3-.79.34-1.22.08-1.2-.26-2.4-.71-3.51-.15-.46-.29-.92-.41-1.39-.47-1.49.3-2.98,1.77-3.51.08-.03.15-.05.25-.08.25-.07.51.07.58.32.07.25-.07.51-.32.58-.45.08-.93.35-1.24.7-.46.5-.65,1.39-.52,2.11.06.38.25.72.41,1.06.21.46.39.95.53,1.44h0c.22.28.51.52.78.73.39.3.81.58,1.24.84.85.52,1.76,1.01,2.65,1.44.72.39.16,1.41-.57,1.03-.96-.44-1.83-1-2.66-1.65-.41-.33-.82-.68-1.17-1.08.09.77.06,1.58-.27,2.3-.07.14-.16.28-.27.4-.05.04-.1.09-.15.12-.06.04-.13.07-.19.1.04.03.08.06.11.1.51.48.8,1.18.81,1.88.05.2.19.34.39.51.31.25.71.45,1.08.61.06.03.25.08.34.11,1.87.52,4.03,1.03,5.88.2.11-.08.23-.17.34-.26.33-.28.66-.61.87-.97.03-.06.05-.11.1-.2.13-.24.34-.44.57-.58.29-.17.59-.28.93-.33h0s0,0,.01,0h.02c.78-.34,1.07-1.24,1.05-2.04Zm-1.31.39c-.2.07-.42-.04-.49-.24-.02-.07-.02-.13-.04-.21-.07-.33-.18-.66-.31-.96-.14-.29-.34-.66-.62-.77-.12-.04-.28-.1-.4-.15-.67-.35-1.26-.82-1.8-1.35-.64-.71-1.39-1.34-2.22-1.82-.31-.18-.64-.33-.98-.44-.08-.02-.17-.05-.25-.07-.19-.03-.31-.2-.28-.39.02-.15.14-.26.27-.28l.31-.06c.83-.13,1.57.32,2.15.87.41.43.79.87,1.18,1.31.11.12.28.37.34.45.26.31.56.6.88.85.24.18.5.35.78.45.1.04.21.06.3.1.75.36,1.16,1.43,1.43,2.17.08.21-.02.44-.23.51Z"/>
            <path class="cls-4" d="m22.47,12.88c-.48.59-1.99,1.16-2.58,1.32-.27.07-.55.14-.82.14-.06,0-.15-.01-.21,0-.41.03-.78.23-1.11.43-.05.03-.1.06-.14.09-.3-.13-.58-.32-.84-.52-.22-.18-.43-.38-.61-.6-.18-.21-.41-.36-.66-.46.04-.02.07-.03.11-.05.38-.14.81-.18,1.22-.2.62.01,1.24.11,1.86.2.75.12,1.46.33,2.25.16.3-.07.6-.2.83-.35.23-.16.43-.19.69-.15Z"/>
            <path class="cls-4" d="m9.28,22.81c-.17-.04-.34-.09-.5-.16-1.04-.4-1.46-1.41-1.55-2.45-.02-.16-.02-.34-.01-.51,0-.13.01-.28,0-.43.06.04.13.08.19.13,1.04.72,1.58,1.79,1.8,3.02.02.11.05.26.07.4Z"/>
            <path class="cls-4" d="m11.46,18.51c-.22.37.32.68.53.32.23-.44.68-.79,1.2-.73.17.02.35.08.5.16.29.12.63.02.92.04h0c-.06.48,0,.98.19,1.42.03.07.06.15.12.21,1.2,1.27,1.04,3.08.48,4.6-.83-.02-1.67.08-2.47-.14-.53-.13-1.02-.39-1.47-.7-.49-.32-1.03-.56-1.59-.73-.04-.01-.07-.02-.11-.03.04-.88-.12-1.8-.57-2.57-.19-.32-.42-.6-.68-.85.09-.15.18-.3.27-.45.25-.39.5-.62.87-.81-.21.9-.04,1.91.88,2.36.22.1.45.2.67.32.67.37,1.35.84,1.81,1.44.04.06.08.12.1.17-.05.2.05.42.25.51.36.16.68-.18.63-.54-.17-1.04-2.18-2.12-3.11-2.44-.87-.29-.91-1.33-.69-2.1,0,0,0,0,0,0h0s0,0,0,0c.25-.7.63-1.47,1.28-1.86.2-.12.42-.17.63-.16.54.03,1.1.08,1.66.11.6.02,1.92.11,1.76-.84-.15-.64-.89-.53-1-.09-.23.05-.48.06-.74.07-.54.02-1.09.02-1.66.04-1.02.01-1.72.93-2.06,1.79-.09.22-.17.43-.23.66-.13,0-.26,0-.38.03-.05-.1-.09-.21-.12-.32-.03-.07-.04-.19-.05-.26-.05-.45.07-.94.4-1.26,0,0,.01-.01.01-.01l.05-.07c.21-.28.53-.46.84-.61.32-.15.61-.34.94-.49.66-.31,1.38-.55,2.11-.74.57-.15,1.39-.23,1.86.1.09.06.15.15.22.24.07.09.15.18.23.26.21.2.37.46.58.66.1.09.21.16.32.2-.09.07-.18.15-.27.22-.27.23-.57.49-.83.73-.3.27-.57.55-.78.91-.12.21-.21.43-.28.66-.19,0-.37.01-.53.01-.11,0-.2-.01-.29-.05-.88-.51-1.81-.21-2.39.59Z"/>
            <path class="cls-4" d="m34.52,20.49c-.22-.53-.46-1.1-.56-1.68-.14-.87-.22-1.76-1.11-2.12-.27-.08-.56-.19-.8-.34-.66-.41-1.26-.88-1.73-1.53-.15-.22-.28-.51-.28-.81,0-.13-.01-.26-.06-.37-.2-.58-.84-.93-1.36-1.14-.15-.05-.31-.08-.47-.07-.16.01-.32.02-.47.01-.79-.03-1.57-.24-2.33-.39-.41-.07-.82-.24-1.18-.43-.65-.32-1.35-.49-1.97-.52-.19-.01-.43,0-.58.07-.06.03-.19.1-.26.13-.38.19-.79.36-1.23.42-.8.08-1.56-.05-2.35-.05-1.73-.07-3.64.08-5.07,1.16-.32.27-.68.47-1.05.66-.89.45-1.84.77-2.82.95-.44.06-.94.22-1.22.56-.64.75-.51,1.92-.68,2.85-.04.21-.14.45,0,.63.04.07.08.13.11.2.38.12.74.3,1.06.53.15-.57.47-1.08.95-1.33-.14-.58-.23-1.17-.11-1.76.05-.21.14-.41.27-.58.11-.18.25-.34.4-.48.2-.17.42-.31.65-.44.64-.4,1.32-.75,2.04-.99.77-.26,1.56-.52,2.39-.49.09,0,.18.01.28.02.2-.46.73-.72,1.19-.83.2-.04.41-.07.61-.09h.35s.35,0,.35,0c.89.04,1.79.25,2.66.35.42.04.83-.03,1.19-.27.09-.06.22-.13.32-.17.79-.31,1.67.02,2.33.48.74.46,1.68.46,2.51.27.1-.02.4-.09.5-.11.28-.04.58-.05.86,0,.68.1,1.33.45,1.76.99.14.18.26.43.22.67-.08.61-.16,1.35.38,1.77l.13.09s.09.05.14.07c.2.11.42.14.63.24.87.4.89,1.5.78,2.32,0,.03,0,.08-.02.11-.32.58-1.13.18-.88-.44.04-.39.15-.89-.12-1.22-.08-.09-.23-.17-.35-.22-.55-.22-1.07-.66-1.23-1.25-.17-.55-.04-1.11.02-1.61,0-.04-.06-.15-.13-.22-.23-.25-.62-.34-.94-.45-.36-.13-.75-.15-1.13-.08-.08.02-.35.08-.43.11-.88.23-1.89.24-2.76-.14-.15-.06-.35-.17-.48-.27-.14-.1-.31-.18-.48-.25-.06.12-.14.24-.22.32-.36.4-.8.67-1.25.92-.56.3-1.15.55-1.77.72-.22.06-.47.11-.72.09h-.02s-.04,0-.04,0c-.48.09-.89.43-1.28.73-.36.28-.72.6-1.06.91-.15.14-.38.34-.52.48-.61.56-.89,1.46-.58,2.24,0,.02.01.03.02.05.97,1.12,1.16,2.65.74,4.03-.09.34-.21.68-.36,1-.01.02-.02.04-.03.06.34.04.67.12,1,.2.95.19,1.69-.12,2.3-.83.1-.12.21-.25.3-.38.34-.44.53-1,.53-1.56,0-.5-.09-1-.31-1.44-.24-.42-.47-.88-.61-1.35-.28-.88-.55-2.44.38-3.03.08-.05.17-.08.26-.11.28-.08.55-.19.82-.32.42-.19.8-.47,1.15-.77.39-.3.75-.66,1.19-.88,1.02-.54,2.3-.29,3.15.45.1-.09.22-.16.35-.18.27-.05.52.06.75.12.4.09.82-.09,1.25-.25.3-.16.56.25.27.44-.49.27-1.04.52-1.62.43-.17-.02-.38-.11-.52-.1-.04,0-.05.03-.08.07-.17.3-.11.65.07.94.19.31.5.58.81.77.04.02.06.05.08.09.14,0,.28-.02.43-.02,1.01-.03,2.27.24,2.71,1.28.14.3.15.64.25.96.14.53.41,1.04.87,1.36.68.49,1.72.78,2.49,1.26.19.11.38.23.57.35.14-.3.19-.76-.15-1.57Zm-15.7,1.92c-.16.53-.98,1.32-1.43.63-.14-.25-.05-.57.21-.71.14-.06.25-.11.33-.28.24-.54.09-1.24-.09-1.82-.2-.48-.27-1-.31-1.51-.04-.5-.06-.99-.05-1.49,0-.27.4-.28.42-.02.09.82.19,1.66.47,2.42.16.34.33.69.42,1.05.15.56.24,1.12.03,1.71Z"/>
          </g>
          <g class="cls-15">
            <path class="cls-11" d="m33.39,25.72c-.2.07-.42-.04-.49-.24-.02-.07-.02-.13-.04-.21-.07-.33-.18-.66-.31-.96-.14-.29-.34-.66-.62-.77-.12-.04-.28-.1-.4-.15-.67-.35-1.26-.82-1.8-1.35-.64-.71-1.39-1.34-2.22-1.82-.31-.18-.64-.33-.98-.44-.08-.02-.17-.05-.25-.07-.19-.03-.31-.2-.28-.39.02-.15.14-.26.27-.28l.31-.06c.83-.13,1.57.32,2.15.87.41.43.79.87,1.18,1.31.11.12.28.37.34.45.26.31.56.6.88.85.24.18.5.35.78.45.1.04.21.06.3.1.75.36,1.16,1.43,1.43,2.17.08.21-.02.44-.23.51Z"/>
            <path class="cls-11" d="m34.45,27.86c.95-.68,1.19-1.9,1.13-2.99,0-.28,0-.67,0-.95,0-.38-.02-.77-.22-1.14-.1-.18-.22-.34-.36-.47.12-.24.2-.49.22-.76.05-.81-.22-1.52-.31-2.3-.07-.38-.08-.73-.11-1.13-.07-.82-.4-1.7-1.16-2.15-.33-.22-.75-.25-1.11-.39-.62-.26-1.33-.61-1.75-1.12-.13-.16-.2-.31-.2-.49,0-.02,0-.1,0-.12-.08-1.19-1.15-2.23-2.34-2.27-.93.08-1.84-.12-2.76-.28-.34-.06-.64-.17-.96-.33-.71-.35-1.49-.57-2.3-.61-.32,0-.63,0-.94.15-.4.21-.83.43-1.26.49-.35.05-.72.02-1.1,0-.76-.04-1.52-.06-2.28-.04-1.15.03-2.31.25-3.36.74-.35.17-.68.36-.99.61-.28.25-.6.42-.93.59-.83.42-1.73.71-2.65.87-.6.08-1.21.31-1.62.78-.56.62-.73,1.5-.84,2.28l-.07.55c-.02.19-.08.34-.11.52-.03.13-.05.34-.03.5.02.11.11.2.2.26.11.07.17.14.22.25.08.15.15.25.15.42,0,.18-.01.4,0,.58,0,.9.27,1.9.86,2.61.36.41.86.7,1.38.86.27.08.54.13.81.22.5.16.98.37,1.42.66.5.37,1.07.66,1.67.82,1.21.36,2.27.07,3.39.36.4.1.81.23,1.23.24.5.03,1-.07,1.46-.27.04.06.08.12.12.18.36.51.94.89,1.58.99.36.05.73.03,1.08-.07.05.05.09.1.13.15.28.38.46.85.48,1.32,0,.07,0,.15,0,.23-.01.22.04.45.13.64.38.74,1.2,1.17,1.92,1.48.75.23,1.55.43,2.38.56.13.84.72,1.65,1.61,1.76.1.02.19.02.29.02.01,0,.02,0,.03,0,.23.38.36.82.32,1.26,0,0,0,.02,0,.02,0,0,0,0,0,.01,0-.01-.02,0-.02,0,0,.05.03.16.05.2.28.74.98.83,1.56.38.48-.37.85-.87,1.39-1.15.08-.03.16-.07.24-.07h0s.23-.05.23-.05c.61-.43,1.26-1.19,1.01-1.98.01-.05.03-.11.05-.15.13-.29.39-.5.68-.64.14-.06.32-.12.46-.17.84-.26.96-1.13.53-1.81-.16-.25-.36-.48-.6-.66Zm-25.67-5.21c-1.04-.4-1.46-1.41-1.55-2.45-.02-.16-.02-.34-.01-.51,0-.13.01-.28,0-.43.06.04.13.08.19.13,1.04.72,1.58,1.79,1.8,3.02.02.11.05.26.07.4-.17-.04-.34-.09-.5-.16Zm6.61,1.89c-.83-.02-1.67.08-2.47-.14-.53-.13-1.02-.39-1.47-.7-.49-.32-1.03-.56-1.59-.73-.04-.01-.07-.02-.11-.03.04-.88-.12-1.8-.57-2.57-.19-.32-.42-.6-.68-.85.09-.15.18-.3.27-.45.25-.39.5-.62.87-.81-.21.9-.04,1.91.88,2.36.22.1.45.2.67.32.67.37,1.35.84,1.81,1.44.04.06.08.12.1.17-.05.2.05.42.25.51.36.16.68-.18.63-.54-.17-1.04-2.18-2.12-3.11-2.44-.87-.29-.91-1.33-.69-2.1,0,0,0,0,0,0h0s0,0,0,0c.25-.7.63-1.47,1.28-1.86.2-.12.42-.17.63-.16.54.03,1.1.08,1.66.11.6.02,1.92.11,1.76-.84-.15-.64-.89-.53-1-.09-.23.05-.48.06-.74.07-.54.02-1.09.02-1.66.04-1.02.01-1.72.93-2.06,1.79-.09.22-.17.43-.23.66-.13,0-.26,0-.38.03-.05-.1-.09-.21-.12-.32-.03-.07-.04-.19-.05-.26-.05-.45.07-.94.4-1.26,0,0,.01-.01.01-.01l.05-.07c.21-.28.53-.46.84-.61.32-.15.61-.34.94-.49.66-.31,1.38-.55,2.11-.74.57-.15,1.39-.23,1.86.1.09.06.15.15.22.24.07.09.15.18.23.26.21.2.37.46.58.66.1.09.21.16.32.2-.09.07-.18.15-.27.22-.27.23-.57.49-.83.73-.3.27-.57.55-.78.91-.12.21-.21.43-.28.66-.19,0-.37.01-.53.01-.11,0-.2-.01-.29-.05-.88-.51-1.81-.21-2.39.59-.22.37.32.68.53.32.23-.44.68-.79,1.2-.73.17.02.35.08.5.16.29.12.63.02.92.04h0c-.06.48,0,.98.19,1.42.03.07.06.15.12.21,1.2,1.27,1.04,3.08.48,4.6Zm-2.29-1.97s0,.03.01.04c0,.02,0,.03,0,.01,0,0,0-.03,0-.05Zm1.57-7.48s.02-.02.04-.02c.01,0,0,.01-.04.02Zm.83-1.81s.07-.03.11-.05c.38-.14.81-.18,1.22-.2.62.01,1.24.11,1.86.2.75.12,1.46.33,2.25.16.3-.07.6-.2.83-.35.23-.16.43-.19.69-.15-.48.59-1.99,1.16-2.58,1.32-.27.07-.55.14-.82.14-.06,0-.15-.01-.21,0-.41.03-.78.23-1.11.43-.05.03-.1.06-.14.09-.3-.13-.58-.32-.84-.52-.22-.18-.43-.38-.61-.6-.18-.21-.41-.36-.66-.46Zm1.35,11.5c-.33-.07-.66-.15-1-.2.01-.02.02-.04.03-.06.15-.32.27-.66.36-1,.41-1.39.23-2.92-.74-4.03,0-.01-.01-.03-.02-.05-.31-.79-.03-1.68.58-2.24.14-.14.37-.34.52-.48.35-.31.7-.62,1.06-.91.39-.3.8-.64,1.28-.73h.04s.02,0,.02,0c.25.02.5-.03.72-.09.62-.16,1.21-.41,1.77-.72.45-.26.89-.53,1.25-.92.08-.09.16-.2.22-.32.17.07.33.15.48.25.13.1.33.21.48.27.86.38,1.87.37,2.76.14.09-.02.35-.09.43-.11.38-.07.77-.05,1.13.08.31.11.7.2.94.45.07.07.13.18.13.22-.06.5-.19,1.06-.02,1.61.17.59.68,1.03,1.23,1.25.12.05.27.13.35.22.27.32.16.83.12,1.22-.25.62.56,1.02.88.44.01-.04.01-.08.02-.11.11-.82.09-1.92-.78-2.32-.2-.1-.43-.14-.63-.24-.04-.02-.1-.04-.14-.07l-.13-.09c-.54-.42-.47-1.16-.38-1.77.04-.24-.08-.49-.22-.67-.43-.54-1.08-.9-1.76-.99-.28-.04-.58-.04-.86,0-.1.01-.4.08-.5.11-.83.19-1.77.19-2.51-.27-.66-.45-1.54-.79-2.33-.48-.1.04-.22.11-.32.17-.36.24-.76.31-1.19.27-.87-.1-1.77-.31-2.66-.35h-.35s-.35,0-.35,0c-.2.02-.41.04-.61.09-.46.11-.99.37-1.19.83-.09-.01-.19-.02-.28-.02-.82-.03-1.62.23-2.39.49-.72.24-1.4.59-2.04.99-.22.13-.45.27-.65.44-.15.14-.29.3-.4.48-.14.17-.23.37-.27.58-.12.59-.03,1.18.11,1.76-.48.25-.8.76-.95,1.33-.32-.23-.68-.41-1.06-.53-.03-.07-.07-.13-.11-.2-.14-.18-.04-.42,0-.63.17-.93.05-2.1.68-2.85.28-.35.78-.5,1.22-.56.98-.18,1.93-.49,2.82-.95.36-.19.73-.39,1.05-.66,1.43-1.08,3.33-1.23,5.07-1.16.79,0,1.55.13,2.35.05.44-.06.85-.23,1.23-.42.07-.03.19-.1.26-.13.15-.06.39-.08.58-.07.62.04,1.33.21,1.97.52.36.19.78.35,1.18.43.77.16,1.55.36,2.33.39.15,0,.31,0,.47-.01.16,0,.32.02.47.07.52.21,1.16.57,1.36,1.14.04.12.05.25.06.37,0,.29.13.58.28.81.47.65,1.07,1.12,1.73,1.53.24.15.53.26.8.34.89.36.96,1.25,1.11,2.12.1.58.34,1.15.56,1.68.35.8.29,1.26.15,1.57-.18-.13-.38-.24-.57-.35-.76-.48-1.81-.77-2.49-1.26-.45-.33-.73-.83-.87-1.36-.09-.31-.11-.66-.25-.96-.44-1.04-1.7-1.31-2.71-1.28-.14,0-.29,0-.43.02-.01-.03-.04-.06-.08-.09-.31-.2-.62-.46-.81-.77-.18-.29-.24-.64-.07-.94.03-.04.04-.06.08-.07.13-.01.35.08.52.1.58.09,1.13-.16,1.62-.43.29-.19.03-.6-.27-.44-.42.16-.84.34-1.25.25-.23-.05-.48-.17-.75-.12-.14.02-.26.09-.35.18-.85-.74-2.13-.99-3.15-.45-.44.22-.8.58-1.19.88-.35.31-.72.58-1.15.77-.27.13-.53.23-.82.32-.09.03-.18.06-.26.11-.94.59-.66,2.15-.38,3.03.14.46.37.92.61,1.35.22.44.32.94.31,1.44,0,.56-.19,1.12-.53,1.56-.1.13-.2.26-.3.38-.61.71-1.36,1.03-2.3.83Zm8.08,4.74c-.1-.03-.28-.08-.34-.11-.37-.16-.77-.36-1.08-.61-.2-.17-.34-.31-.39-.51,0-.7-.3-1.4-.81-1.88-.04-.04-.07-.07-.11-.1.07-.03.13-.07.19-.1.05-.03.1-.08.15-.12.11-.12.2-.26.27-.4.32-.72.36-1.52.27-2.3.36.4.76.75,1.17,1.08.83.65,1.7,1.22,2.66,1.65.73.38,1.28-.64.57-1.03-.9-.43-1.8-.92-2.65-1.44-.43-.26-.85-.54-1.24-.84-.27-.22-.57-.46-.78-.73h0c-.14-.5-.32-.98-.53-1.44-.15-.34-.35-.68-.41-1.06-.14-.72.05-1.61.52-2.11.32-.35.79-.62,1.24-.7.25-.07.39-.33.32-.58-.07-.25-.33-.39-.58-.32-.09.02-.17.05-.25.08-1.47.53-2.24,2.02-1.77,3.51.12.47.26.93.41,1.39.45,1.11.79,2.31.71,3.51-.04.43-.11.85-.34,1.22,0,.01-.06.08-.07.08-.85.5-1.85.47-2.58-.22-.05-.04-.11-.11-.15-.15-.02-.02-.04-.04-.06-.07.36-.23.68-.52.94-.86.89-1.09.99-2.65.4-3.91-.08-.18-.21-.39-.31-.54-.37-.58-.65-1.26-.75-1.94-.05-.39-.09-.95.24-1.2.05-.03.13-.05.19-.07.48-.15.93-.39,1.36-.63.25-.14.5-.31.74-.46.27-.16.7-.41.97-.56.65-.36,1.36-.33,2.02-.07.13.05.26.1.38.17.08.04.17.05.26.06-.14.69.26,1.44.87,1.78-.23.04-.46.08-.7.13-.24.06-.49.1-.72.21-.22.11-.46.23-.67.37-1.17.75-1.18,2.2-.84,3.4.35,1.59,2.2,2.05,3.59,2.08.13,0,.38,0,.51,0,.62-.04,1.26.02,1.74.42.47.31.75.8.66,1.38-.01.19-.05.4-.1.58-.24.93-.92,1.72-1.81,2.09-.3.14-.87.28-1.06.29-1.14-.07-2.04-.96-2.49-1.96-.15-.32-.54-.45-.85-.28-.32.17-.41.59-.21.89.35.64.83,1.21,1.44,1.63.62.43,1.39.69,2.15.66h.06s.04,0,.05-.01c.44-.1.88-.26,1.28-.49.8-.44,1.44-1.2,1.75-2.04.4-1.05.49-2.33-.29-3.25-.59-.66-1.53-.8-2.36-.75-.12,0-.35.01-.46.01-.94-.01-2.32-.22-2.76-1.15-.3-.84-.58-1.97.1-2.68.22-.24.59-.39.91-.53.69-.15,1.57-.19,2.29-.14.49.03,1.05.1,1.45.33.27.16.4.4.44.7.15.91.57,1.85,1.34,2.41.57.42,1.19.62,1.8.89.51.23,1.1.52,1.51.86.19.16.26.29.31.54.04.25.04.57.04.88,0,.23.01.71.02.94.02.79-.27,1.7-1.05,2.03h-.02s0,.01-.01.01h0c-.33.05-.64.16-.93.33-.23.14-.44.33-.57.58-.05.09-.07.14-.1.2-.2.36-.54.69-.87.97-.11.09-.22.18-.34.26-1.85.83-4.01.32-5.88-.2Zm9.54-.16c-.03.11-.11.12-.22.15-.56.14-1.09.4-1.45.88-.16.23-.29.49-.33.78-.01.09-.03.23.02.33.18.38-.29.81-.56,1.04-.02.01-.04.03-.06.04-.03.01-.06.03-.09.05-.51.33-.95.74-1.37,1.15-.1.1-.2.19-.31.26-.13.09-.25.16-.38.14-.08-.03-.13-.15-.15-.23-.02-.46-.18-.91-.44-1.3.59-.06,1.17-.2,1.69-.48.19-.11.11-.41-.12-.4-.16,0-.45.02-.61.03-.51.02-1.04.02-1.55,0-.53,0-.9-.37-1.18-.8,1.32.12,2.65,0,3.83-.54.17-.09.34-.24.49-.36.41-.36.76-.69,1.06-1.2.04-.06.07-.15.11-.21.18-.31.6-.42.94-.48.09.06.17.13.24.21.23.25.49.61.44.95Z"/>
            <path class="cls-11" d="m18.82,22.4c-.16.53-.98,1.32-1.43.63-.14-.25-.05-.57.21-.71.14-.06.25-.11.33-.28.24-.54.09-1.24-.09-1.82-.2-.48-.27-1-.31-1.51-.04-.5-.06-.99-.05-1.49,0-.27.4-.28.42-.02.09.82.19,1.66.47,2.42.16.34.33.69.42,1.05.15.56.24,1.12.03,1.71Z"/>
          </g>
          <g class="cls-16">
            <path class="cls-12" d="m9.89,10.7s-.03-2.93-2.03-3.94c0,0-.64-.41-1.12.41s.63,1.24.63,1.24c0,0,2.2,1.01,2.52,2.29Z"/>
            <path class="cls-12" d="m16.81,8.68s-1.65-1.78-1.33-3.75c0,0,0-.41.6-.41s.68.18.73.87-.46,2.23,0,3.29Z"/>
            <path class="cls-12" d="m25.1,9.06s1.91-2.7,1.53-3.57-1.3-.46-1.3,0,.23,2.79-.23,3.57Z"/>
            <path class="cls-12" d="m32.98,11.73s2.43-3.29,3.3-3.05.73,1.22.27,1.44-3.11,1.18-3.57,1.61Z"/>
          </g>
        </g>
      </g>
    </g>
  </g>
</svg>